<?xml version="1.0" encoding="utf-8"?>
<!-- Generator: Adobe Illustrator 19.2.1, SVG Export Plug-In . SVG Version: 6.00 Build 0)  -->
<svg version="1.1" id="katman_1" xmlns="http://www.w3.org/2000/svg" xmlns:xlink="http://www.w3.org/1999/xlink" x="0px" y="0px"
	 viewBox="0 0 455.5 263.4" style="enable-background:new 0 0 455.5 263.4;" xml:space="preserve">
<style type="text/css">
	.st0{clip-path:url(#SVGID_2_);fill:url(#SVGID_3_);}
	.st1{clip-path:url(#SVGID_5_);fill:url(#SVGID_6_);}
	.st2{clip-path:url(#SVGID_8_);fill:url(#SVGID_9_);}
</style>
<g>
	<defs>
		<path id="SVGID_1_" d="M191.8,38.1C175.6,57,165.9,81.4,165.9,108c0,31.2-25.5,56.6-57,56.6s-57-25.3-57-56.6
			c0-3.1,0.3-6.1,0.7-9.1c4.4-26.9,27.9-47.5,56.3-47.5c22.2,0,41.4,12.6,50.8,30.9c4.3-19.1,13.4-36.5,25.9-50.9
			C165.9,12,138.8,0,108.8,0C51.9,0,5,43.6,0.4,98.9c-0.3,3-0.4,6-0.4,9.1c0,38.8,20.8,72.9,51.8,92c16.6,10.2,36.1,16,57,16
			c20.9,0,40.4-5.9,57-16c9.8-6,18.5-13.5,25.9-22.1c16.2-18.8,25.9-43.3,25.9-69.9c0-31.2,25.5-56.6,57-56.6s57,25.3,57,56.6
			c0,3.1-0.3,6.1-0.7,9.1c-4.4,26.9-27.9,47.5-56.3,47.5c-22.2,0-41.4-12.6-50.8-30.9c-1.5,6.7-3.6,13.2-6.2,19.4
			c-4.9,11.6-11.5,22.2-19.7,31.5c-9.1,10.4-19.9,19.2-32.1,25.9v52.9c28.6,0,51.8-23.2,51.8-51.8V200c16.6,10.2,36.1,16,57,16
			c56.9,0,103.8-43.6,108.5-98.9c0.3-3,0.4-6,0.4-9.1c0-59.6-48.8-108-108.8-108C241.5,0,211.8,14.8,191.8,38.1"/>
	</defs>
	<clipPath id="SVGID_2_">
		<use xlink:href="#SVGID_1_"  style="overflow:visible;"/>
	</clipPath>
	
		<linearGradient id="SVGID_3_" gradientUnits="userSpaceOnUse" x1="-192.69" y1="420.804" x2="-189.9544" y2="420.804" gradientTransform="matrix(140.207 0 0 -140.207 27016.4922 59131.3477)">
		<stop  offset="0" style="stop-color:#E30613"/>
		<stop  offset="0.2546" style="stop-color:#E10814"/>
		<stop  offset="0.4432" style="stop-color:#D80E15"/>
		<stop  offset="0.61" style="stop-color:#CA1416"/>
		<stop  offset="0.7643" style="stop-color:#B71918"/>
		<stop  offset="0.7651" style="stop-color:#B71918"/>
		<stop  offset="1" style="stop-color:#B71918"/>
	</linearGradient>
	<rect class="st0" width="383.6" height="263.4"/>
</g>
<g>
	<defs>
		<path id="SVGID_4_" d="M420.6,87.2c-9.3,0-18.1-2.3-25.9-6.2v138.9c28.6,0,51.8-23.2,51.8-51.8V81C438.7,84.9,430,87.2,420.6,87.2
			"/>
	</defs>
	<clipPath id="SVGID_5_">
		<use xlink:href="#SVGID_4_"  style="overflow:visible;"/>
	</clipPath>
	
		<linearGradient id="SVGID_6_" gradientUnits="userSpaceOnUse" x1="-176.2571" y1="420.0385" x2="-173.5215" y2="420.0385" gradientTransform="matrix(18.9473 0 0 -18.9473 3734.2959 8109.0454)">
		<stop  offset="0" style="stop-color:#E30613"/>
		<stop  offset="0.2546" style="stop-color:#E10814"/>
		<stop  offset="0.4432" style="stop-color:#D80E15"/>
		<stop  offset="0.61" style="stop-color:#CA1416"/>
		<stop  offset="0.7643" style="stop-color:#B71918"/>
		<stop  offset="0.7651" style="stop-color:#B71918"/>
		<stop  offset="1" style="stop-color:#B71918"/>
	</linearGradient>
	<rect x="394.7" y="81" class="st1" width="51.8" height="138.9"/>
</g>
<g>
	<defs>
		<path id="SVGID_7_" d="M385.7,40.4c0,19.3,15.6,34.9,34.9,34.9c19.3,0,34.9-15.6,34.9-34.9c0-19.3-15.6-34.9-34.9-34.9
			C401.4,5.5,385.7,21.1,385.7,40.4"/>
	</defs>
	<clipPath id="SVGID_8_">
		<use xlink:href="#SVGID_7_"  style="overflow:visible;"/>
	</clipPath>
	
		<linearGradient id="SVGID_9_" gradientUnits="userSpaceOnUse" x1="-180.815" y1="422.9982" x2="-178.0792" y2="422.9982" gradientTransform="matrix(25.499 0 0 -25.499 4996.3389 10826.3828)">
		<stop  offset="0" style="stop-color:#E30613"/>
		<stop  offset="0.2546" style="stop-color:#E10814"/>
		<stop  offset="0.4432" style="stop-color:#D80E15"/>
		<stop  offset="0.61" style="stop-color:#CA1416"/>
		<stop  offset="0.7643" style="stop-color:#B71918"/>
		<stop  offset="0.7651" style="stop-color:#B71918"/>
		<stop  offset="1" style="stop-color:#B71918"/>
	</linearGradient>
	<rect x="385.7" y="5.5" class="st2" width="69.8" height="69.8"/>
</g>
</svg>
